<svg id="svg" version="1.1" xmlns="http://www.w3.org/2000/svg" xmlns:xlink="http://www.w3.org/1999/xlink" width="400" height="179.02813299232736" viewBox="0, 0, 400,179.02813299232736"><g id="svgg"><path id="path0" d="M299.167 28.667 L 299.167 35.667 283.750 35.667 L 268.333 35.667 268.333 40.667 L 268.333 45.667 272.000 45.667 L 275.667 45.667 275.667 71.750 L 275.667 97.833 282.583 97.833 L 289.500 97.833 289.500 71.667 L 289.500 45.500 294.333 45.500 C 296.992 45.500,299.180 45.519,299.197 45.542 C 299.213 45.565,299.274 54.733,299.333 65.917 C 299.439 86.030,299.444 86.264,299.797 87.539 C 300.987 91.830,303.299 94.830,306.542 96.293 C 309.357 97.563,309.135 97.540,319.542 97.620 L 328.833 97.691 328.833 91.679 L 328.833 85.667 323.042 85.664 C 316.979 85.661,316.276 85.592,315.449 84.913 L 315.048 84.583 314.933 65.208 L 314.818 45.833 321.826 45.833 L 328.833 45.833 328.833 40.665 L 328.833 35.496 321.667 35.608 L 314.500 35.721 314.500 28.694 L 314.500 21.667 306.833 21.667 L 299.167 21.667 299.167 28.667 M275.667 27.750 L 275.667 33.667 281.823 33.667 C 285.886 33.667,288.017 33.608,288.087 33.494 C 288.146 33.399,288.139 30.737,288.072 27.578 L 287.951 21.833 281.809 21.833 L 275.667 21.833 275.667 27.750 " stroke="none" fill="#b4b4b4" fill-rule="evenodd"></path><path id="path1" d="M333.167 31.542 C 333.167 43.306,333.336 50.333,333.619 50.333 C 333.747 50.333,335.966 49.629,338.550 48.769 C 341.135 47.908,343.850 47.013,344.583 46.781 C 345.317 46.548,346.779 46.063,347.833 45.702 C 348.887 45.341,350.800 44.702,352.083 44.281 C 353.367 43.860,354.829 43.370,355.333 43.192 C 355.837 43.014,357.525 42.452,359.083 41.943 C 360.642 41.435,362.329 40.872,362.833 40.693 C 363.337 40.515,365.025 39.951,366.583 39.441 C 368.142 38.931,369.754 38.389,370.167 38.235 C 370.579 38.082,371.127 37.910,371.384 37.853 C 372.363 37.637,372.105 37.493,368.667 36.343 C 368.162 36.174,367.525 35.943,367.250 35.831 C 366.975 35.718,366.600 35.563,366.417 35.488 C 366.233 35.413,364.846 34.925,363.333 34.405 C 361.821 33.885,359.646 33.128,358.500 32.722 C 357.354 32.316,355.779 31.763,355.000 31.494 C 353.618 31.016,351.668 30.315,351.167 30.116 C 351.029 30.061,350.354 29.830,349.667 29.602 C 348.979 29.375,347.892 28.993,347.250 28.754 C 345.782 28.208,343.620 27.445,342.000 26.900 C 340.491 26.393,338.541 25.694,338.083 25.496 C 337.900 25.416,337.037 25.120,336.167 24.836 C 335.296 24.553,334.453 24.249,334.294 24.161 C 334.135 24.072,333.816 24.000,333.586 24.000 L 333.167 24.000 333.167 31.542 M25.111 130.444 C 25.050 130.506,25.000 131.406,25.000 132.444 L 25.000 134.333 198.505 134.333 L 372.011 134.333 371.964 132.375 L 371.917 130.417 198.570 130.375 C 103.229 130.352,25.172 130.383,25.111 130.444 " stroke="none" fill="#cc141c" fill-rule="evenodd"></path><path id="path2" d="M204.500 35.851 C 196.782 35.913,190.659 36.030,190.083 36.127 C 188.641 36.370,187.343 36.634,186.625 36.830 C 186.281 36.923,185.756 37.066,185.458 37.147 C 182.838 37.857,178.596 40.048,176.515 41.764 C 175.548 42.561,174.367 43.655,173.606 44.458 C 172.212 45.929,172.230 45.983,172.070 39.981 L 171.961 35.879 154.689 35.940 C 124.510 36.047,122.518 36.086,116.583 36.684 C 113.360 37.010,109.576 37.776,107.917 38.440 C 107.550 38.587,107.100 38.762,106.917 38.829 C 105.405 39.387,102.831 40.735,102.694 41.042 C 102.664 41.110,102.533 41.167,102.403 41.167 C 102.273 41.167,102.167 41.225,102.167 41.297 C 102.167 41.369,101.923 41.572,101.626 41.747 C 98.335 43.692,95.461 49.536,95.437 54.333 C 95.419 57.935,98.098 62.739,101.250 64.760 C 101.525 64.936,101.825 65.139,101.917 65.209 C 102.653 65.777,105.162 67.107,106.583 67.681 C 108.195 68.333,110.410 69.101,111.750 69.474 C 113.975 70.094,114.850 70.324,115.667 70.505 C 116.171 70.617,116.808 70.777,117.083 70.861 C 117.584 71.013,120.867 71.678,122.750 72.007 C 123.300 72.103,124.125 72.249,124.583 72.332 C 125.795 72.550,127.527 72.795,129.333 73.005 C 134.647 73.621,136.783 74.614,137.944 77.006 C 140.194 81.643,137.326 86.555,132.000 87.187 C 123.676 88.175,119.373 87.999,114.500 86.470 C 110.180 85.115,106.210 81.605,105.439 78.458 L 105.327 78.000 94.301 78.000 L 83.276 78.000 82.263 78.874 C 81.706 79.354,80.950 80.052,80.583 80.423 C 80.045 80.969,78.143 82.596,76.297 84.089 C 70.617 88.684,59.985 89.494,52.792 85.880 C 48.498 83.721,45.429 80.639,43.124 76.167 C 42.554 75.061,41.663 72.169,41.418 70.625 L 41.318 70.000 67.258 70.000 L 93.199 70.000 93.089 68.208 C 93.029 67.223,92.870 65.817,92.737 65.083 C 92.603 64.350,92.412 63.300,92.312 62.750 C 92.212 62.200,92.068 61.525,91.993 61.250 C 91.918 60.975,91.765 60.413,91.654 60.000 C 91.220 58.383,90.428 56.191,89.759 54.755 C 89.374 53.927,88.953 53.006,88.822 52.708 C 88.692 52.410,88.529 52.167,88.459 52.167 C 88.390 52.167,88.333 52.083,88.333 51.981 C 88.333 50.902,83.124 44.686,80.715 42.890 C 80.368 42.631,80.046 42.371,80.000 42.314 C 79.594 41.804,75.816 39.658,73.492 38.617 C 68.956 36.585,61.869 35.691,56.000 36.408 C 52.636 36.819,49.433 37.501,48.461 38.014 C 48.301 38.098,48.090 38.167,47.992 38.167 C 47.893 38.167,47.402 38.354,46.901 38.583 C 46.400 38.813,45.941 39.000,45.881 39.000 C 45.376 39.000,41.231 41.436,39.684 42.642 C 37.586 44.277,33.833 48.248,33.833 48.833 C 33.833 48.912,33.740 49.075,33.625 49.196 C 33.249 49.594,32.500 50.764,32.500 50.953 C 32.500 51.055,32.434 51.164,32.353 51.194 C 31.928 51.355,29.829 56.392,29.204 58.750 C 27.417 65.495,27.414 69.562,29.189 76.208 C 29.520 77.446,29.731 78.079,29.867 78.242 C 29.940 78.329,30.000 78.510,30.000 78.643 C 30.000 78.963,31.830 82.734,32.020 82.806 C 32.101 82.836,32.167 82.931,32.167 83.017 C 32.167 83.285,33.430 85.132,34.719 86.750 C 38.091 90.980,44.200 94.903,49.917 96.508 C 58.325 98.868,67.197 98.760,75.250 96.199 C 79.454 94.863,85.996 91.064,89.000 88.215 L 89.750 87.504 93.793 87.502 L 97.836 87.500 98.377 88.020 C 98.674 88.306,99.179 88.737,99.500 88.977 C 99.821 89.218,100.121 89.456,100.167 89.507 C 100.212 89.558,100.513 89.780,100.833 90.000 C 101.154 90.220,101.454 90.442,101.500 90.492 C 101.693 90.703,104.009 92.167,104.151 92.167 C 104.236 92.167,104.331 92.223,104.361 92.292 C 104.468 92.531,109.315 95.000,109.679 95.000 C 109.766 95.000,109.968 95.069,110.127 95.152 C 110.638 95.421,112.234 96.046,112.750 96.178 C 113.025 96.249,113.737 96.428,114.333 96.577 C 114.929 96.725,115.679 96.913,116.000 96.995 C 116.688 97.170,118.323 97.414,120.436 97.658 C 122.345 97.878,131.383 97.886,132.833 97.668 C 135.734 97.233,138.818 96.390,141.250 95.368 C 142.446 94.865,145.479 93.331,145.700 93.116 C 145.819 93.001,146.186 92.750,146.514 92.558 C 149.217 90.984,152.355 87.076,153.454 83.917 C 154.731 80.244,154.571 74.540,153.114 71.833 C 151.299 68.459,148.520 66.148,143.833 64.116 C 142.278 63.441,138.801 62.426,136.583 61.999 C 136.033 61.893,135.283 61.743,134.917 61.666 C 134.550 61.589,133.688 61.440,133.000 61.335 C 132.313 61.230,131.150 61.041,130.417 60.916 C 129.683 60.790,128.446 60.605,127.667 60.505 C 126.888 60.405,125.706 60.250,125.042 60.162 C 124.377 60.073,123.271 59.925,122.583 59.833 C 118.272 59.258,117.330 59.107,115.750 58.737 C 112.972 58.087,111.326 57.289,109.926 55.917 C 108.550 54.567,108.194 51.918,109.210 50.583 C 109.280 50.492,109.483 50.222,109.661 49.983 C 112.120 46.693,120.529 44.874,126.417 46.358 C 128.601 46.909,129.531 47.191,129.742 47.367 C 129.829 47.440,130.006 47.500,130.137 47.500 C 130.471 47.500,133.436 48.948,134.333 49.550 C 135.018 50.009,137.762 52.677,138.876 53.968 C 139.679 54.897,139.692 54.822,139.566 50.083 L 139.449 45.667 150.141 45.667 L 160.833 45.667 160.833 84.083 L 160.833 122.500 166.750 122.500 L 172.667 122.500 172.669 105.875 L 172.672 89.250 173.383 90.000 C 176.954 93.766,182.015 96.476,187.083 97.336 C 187.725 97.445,188.610 97.601,189.050 97.684 C 190.144 97.888,195.745 97.873,197.218 97.661 C 202.545 96.895,207.236 95.233,211.108 92.741 C 211.919 92.219,212.621 91.744,212.667 91.686 C 212.713 91.629,213.049 91.358,213.414 91.086 C 214.130 90.551,216.321 88.405,217.000 87.573 C 218.115 86.206,219.357 84.241,220.154 82.583 C 220.550 81.758,220.941 80.952,221.021 80.792 C 221.631 79.587,222.590 75.985,223.159 72.764 C 223.437 71.189,223.377 62.032,223.077 60.333 C 222.425 56.638,221.736 54.555,220.126 51.417 C 219.750 50.683,219.361 49.915,219.263 49.710 C 219.164 49.504,219.027 49.335,218.958 49.335 C 218.890 49.334,218.833 49.264,218.833 49.180 C 218.833 49.016,217.072 46.396,216.715 46.030 C 216.597 45.909,216.500 45.777,216.500 45.738 C 216.500 45.699,219.762 45.667,223.750 45.667 L 231.000 45.667 231.000 71.750 L 231.000 97.833 237.000 97.833 L 243.000 97.833 243.000 82.125 C 243.000 72.657,243.067 65.721,243.170 64.667 C 243.745 58.772,243.749 58.748,244.554 56.323 C 245.183 54.428,245.608 53.577,246.845 51.737 C 247.691 50.478,248.385 49.758,250.254 48.198 C 250.440 48.043,250.890 47.761,251.254 47.571 C 251.618 47.381,252.067 47.146,252.250 47.049 C 252.858 46.727,253.403 46.517,254.745 46.090 C 256.061 45.671,256.129 45.667,261.787 45.667 L 267.500 45.667 267.500 40.667 L 267.500 35.667 262.792 35.666 C 257.864 35.665,256.807 35.771,254.083 36.542 C 252.887 36.881,252.586 36.995,251.000 37.711 C 248.933 38.645,245.617 41.361,244.237 43.250 C 243.969 43.617,243.643 44.029,243.511 44.167 C 243.380 44.304,242.912 44.979,242.471 45.667 C 242.031 46.354,241.594 47.007,241.502 47.118 C 241.409 47.229,241.333 47.357,241.333 47.403 C 241.333 47.449,241.045 47.942,240.694 48.498 L 240.054 49.510 239.944 44.728 C 239.883 42.098,239.833 38.983,239.833 37.806 L 239.833 35.667 228.875 35.705 C 222.848 35.726,211.879 35.792,204.500 35.851 M64.023 45.919 C 66.482 46.364,68.807 47.099,70.000 47.808 C 70.640 48.188,72.893 49.715,73.102 49.910 C 74.451 51.171,74.849 51.561,75.423 52.185 C 77.259 54.181,80.500 60.196,80.500 61.609 C 80.500 61.641,71.875 61.667,61.333 61.667 L 42.167 61.667 42.167 61.275 C 42.167 61.059,42.233 60.666,42.314 60.400 C 42.395 60.134,42.554 59.579,42.668 59.167 C 44.437 52.738,49.476 47.667,55.417 46.338 C 55.875 46.236,56.700 46.049,57.250 45.923 C 58.622 45.609,62.302 45.607,64.023 45.919 M194.515 46.747 C 197.770 47.259,201.870 48.907,203.000 50.160 C 203.046 50.210,203.374 50.469,203.729 50.734 C 204.608 51.390,206.330 53.104,206.926 53.917 C 207.195 54.283,207.469 54.624,207.536 54.673 C 207.824 54.888,209.350 57.614,209.843 58.794 C 212.263 64.589,212.105 70.551,209.373 76.500 C 207.744 80.047,203.826 83.941,200.083 85.731 C 188.942 91.062,175.943 84.545,172.858 72.083 C 171.801 67.813,172.265 62.482,174.029 58.617 C 174.554 57.466,175.797 55.174,175.991 55.000 C 176.042 54.954,176.375 54.542,176.731 54.083 C 178.493 51.818,181.272 49.581,183.750 48.431 C 184.483 48.091,185.196 47.754,185.333 47.683 C 185.654 47.516,188.144 46.905,189.333 46.701 C 190.752 46.458,192.791 46.476,194.515 46.747 M183.526 108.678 C 181.611 109.528,180.833 110.621,180.833 112.460 C 180.833 114.862,181.961 115.880,185.500 116.675 C 186.550 116.910,188.249 117.440,188.771 117.694 C 189.387 117.995,189.629 119.086,189.241 119.811 C 187.952 122.218,183.000 121.162,183.000 118.480 C 183.000 118.198,182.858 118.167,181.565 118.167 C 180.162 118.167,180.132 118.175,180.221 118.542 C 180.270 118.748,180.365 119.217,180.432 119.583 C 181.350 124.642,191.385 124.746,192.078 119.704 C 192.407 117.313,191.316 115.597,189.083 114.992 C 188.000 114.698,185.889 114.137,185.397 114.011 C 182.487 113.268,183.218 110.368,186.272 110.539 C 187.678 110.618,188.537 111.184,188.848 112.238 L 189.073 113.000 190.370 113.000 L 191.667 113.000 191.667 112.255 C 191.667 109.309,186.861 107.198,183.526 108.678 M212.973 108.618 C 211.943 108.776,211.423 109.608,211.250 111.375 L 211.140 112.500 210.320 112.500 L 209.500 112.500 209.500 113.417 L 209.500 114.333 210.417 114.333 L 211.333 114.333 211.333 118.667 L 211.333 123.000 212.583 123.000 L 213.833 123.000 213.833 118.667 L 213.833 114.333 214.750 114.333 L 215.667 114.333 215.667 113.417 L 215.667 112.500 214.750 112.500 L 213.833 112.500 213.833 111.673 C 213.833 110.690,214.170 110.412,215.191 110.549 L 215.833 110.635 215.833 109.669 C 215.833 108.941,215.768 108.677,215.570 108.601 C 215.290 108.494,213.716 108.504,212.973 108.618 M365.333 110.583 L 365.333 112.167 364.417 112.167 L 363.500 112.167 363.500 113.083 L 363.500 114.000 364.417 114.000 L 365.333 114.000 365.346 117.458 C 365.364 122.460,365.947 123.254,369.240 122.760 L 370.000 122.646 370.000 121.677 L 370.000 120.708 369.269 120.790 C 367.920 120.942,367.833 120.718,367.833 117.083 L 367.833 114.000 368.917 114.000 L 370.000 114.000 370.000 113.083 L 370.000 112.167 368.917 112.167 L 367.833 112.167 367.833 110.583 L 367.833 109.000 366.583 109.000 L 365.333 109.000 365.333 110.583 M300.333 110.667 L 300.333 112.167 299.500 112.167 L 298.667 112.167 298.667 113.167 L 298.667 114.167 299.500 114.167 L 300.333 114.167 300.333 117.439 C 300.333 122.487,300.525 122.833,303.322 122.833 L 304.833 122.833 304.833 121.833 L 304.833 120.833 304.027 120.833 C 302.895 120.833,302.833 120.638,302.833 117.075 L 302.833 114.167 303.833 114.167 L 304.833 114.167 304.833 113.167 L 304.833 112.167 303.833 112.167 L 302.833 112.167 302.833 110.667 L 302.833 109.167 301.583 109.167 L 300.333 109.167 300.333 110.667 M310.672 112.154 C 310.085 112.360,309.567 112.692,309.214 113.088 L 308.667 113.703 308.667 112.935 L 308.667 112.167 307.500 112.167 L 306.333 112.167 306.333 117.500 L 306.333 122.833 307.583 122.833 L 308.833 122.833 308.833 119.970 C 308.833 115.615,309.539 114.333,311.937 114.333 L 312.667 114.333 312.667 113.167 C 312.667 112.346,312.605 111.999,312.458 111.998 C 312.344 111.996,312.100 111.960,311.917 111.916 C 311.733 111.872,311.173 111.979,310.672 112.154 M316.917 112.020 C 311.379 113.296,311.585 122.113,317.173 122.983 C 319.803 123.393,322.833 121.664,322.833 119.753 C 322.833 119.194,320.601 119.087,320.426 119.637 C 320.266 120.141,319.458 120.791,318.757 120.981 C 317.340 121.364,315.849 120.416,315.579 118.962 L 315.464 118.340 319.274 118.295 L 323.083 118.250 323.140 117.667 C 323.479 114.209,320.226 111.258,316.917 112.020 M328.766 112.057 C 328.408 112.157,327.864 112.475,327.557 112.764 L 327.000 113.289 327.000 112.728 L 327.000 112.167 325.750 112.167 L 324.500 112.167 324.500 117.500 L 324.500 122.833 325.750 122.833 L 327.000 122.833 327.004 119.458 C 327.008 115.094,327.458 114.000,329.245 114.000 C 330.821 114.000,331.000 114.529,331.000 119.187 L 331.000 122.833 332.250 122.833 L 333.500 122.833 333.500 119.158 C 333.500 115.191,333.568 114.821,334.402 114.275 C 335.045 113.854,336.218 113.916,336.782 114.402 L 337.250 114.804 337.303 118.819 L 337.355 122.833 338.604 122.833 L 339.853 122.833 339.802 118.362 L 339.750 113.891 339.307 113.222 C 338.229 111.595,335.323 111.371,333.668 112.788 L 333.039 113.326 332.449 112.769 C 331.549 111.921,330.195 111.659,328.766 112.057 M344.863 112.159 C 341.388 113.342,340.299 118.938,343.014 121.655 C 345.500 124.142,350.626 123.003,351.396 119.792 L 351.506 119.333 350.264 119.333 C 349.209 119.333,349.008 119.379,348.926 119.637 C 348.223 121.853,344.552 121.145,344.107 118.708 L 344.008 118.167 347.837 118.167 L 351.667 118.167 351.667 117.192 C 351.667 113.401,348.371 110.964,344.863 112.159 M357.090 112.176 C 356.726 112.357,356.220 112.706,355.965 112.951 L 355.500 113.396 355.500 112.781 L 355.500 112.167 354.333 112.167 L 353.167 112.167 353.167 117.417 L 353.167 122.667 354.417 122.667 L 355.667 122.667 355.667 119.303 C 355.667 114.846,356.052 114.000,358.078 114.000 C 359.836 114.000,360.000 114.436,360.000 119.104 L 360.000 122.667 361.250 122.667 L 362.500 122.667 362.500 118.608 C 362.500 114.079,362.438 113.720,361.497 112.824 C 360.433 111.811,358.417 111.514,357.090 112.176 M268.583 112.244 C 268.216 112.375,267.636 112.795,267.292 113.179 L 266.667 113.876 266.667 113.105 L 266.667 112.333 265.500 112.333 L 264.333 112.333 264.334 114.458 C 264.334 115.627,264.383 117.990,264.443 119.708 L 264.553 122.833 265.776 122.833 L 267.000 122.833 267.000 119.770 C 267.000 115.444,267.786 114.115,270.138 114.460 L 270.682 114.540 270.633 113.312 L 270.583 112.083 269.917 112.045 C 269.550 112.024,268.950 112.114,268.583 112.244 M280.333 112.098 C 278.478 112.429,277.132 113.541,276.926 114.913 C 276.783 115.867,276.673 115.794,278.120 115.704 C 279.170 115.639,279.336 115.584,279.431 115.273 C 279.943 113.588,283.500 113.633,283.500 115.324 C 283.500 115.926,282.738 116.498,281.936 116.499 C 281.303 116.500,279.418 116.810,278.602 117.047 C 278.246 117.150,277.646 117.523,277.269 117.874 L 276.583 118.514 276.583 119.911 C 276.583 122.889,279.564 124.101,282.917 122.487 C 283.717 122.102,283.833 122.092,283.833 122.412 C 283.833 123.022,285.653 123.394,286.575 122.973 C 287.241 122.670,287.214 121.213,286.542 121.136 L 286.083 121.083 286.000 117.667 C 285.900 113.546,285.846 113.387,284.282 112.515 C 283.648 112.162,281.341 111.918,280.333 112.098 M196.555 112.515 C 192.358 114.129,192.148 121.096,196.242 122.906 C 197.392 123.414,199.419 123.504,200.227 123.082 C 200.490 122.945,200.814 122.833,200.947 122.833 C 201.304 122.833,202.933 121.141,203.035 120.662 C 203.084 120.436,203.179 120.119,203.246 119.958 C 203.357 119.695,203.244 119.667,202.101 119.667 C 201.404 119.667,200.833 119.732,200.833 119.812 C 200.833 119.893,200.572 120.243,200.253 120.592 C 199.130 121.818,196.973 121.414,196.163 119.826 C 195.463 118.453,195.343 118.500,199.566 118.500 C 203.838 118.500,203.583 118.604,203.398 116.931 C 203.004 113.362,199.774 111.278,196.555 112.515 M219.750 112.398 C 215.376 114.078,215.105 120.847,219.333 122.811 C 224.001 124.980,228.516 120.392,226.673 115.351 C 225.750 112.825,222.381 111.388,219.750 112.398 M232.398 112.606 C 232.042 112.848,231.619 113.197,231.458 113.382 C 231.174 113.710,231.167 113.701,231.167 113.004 L 231.167 112.290 230.542 112.393 C 230.198 112.450,229.673 112.497,229.375 112.498 L 228.833 112.500 228.833 117.750 L 228.833 123.000 230.083 123.000 L 231.333 123.000 231.333 119.937 C 231.333 115.540,232.202 114.079,234.514 114.586 L 235.000 114.693 235.000 113.430 L 235.000 112.167 234.023 112.167 C 233.243 112.167,232.916 112.255,232.398 112.606 M239.583 112.360 C 239.400 112.461,239.006 112.774,238.708 113.055 L 238.167 113.565 238.167 112.949 L 238.167 112.333 237.000 112.333 L 235.833 112.333 235.833 117.667 L 235.833 123.000 237.072 123.000 L 238.310 123.000 238.364 119.292 C 238.429 114.730,238.831 113.928,240.897 114.238 C 242.041 114.410,242.076 114.540,242.138 118.958 L 242.194 122.833 243.416 122.833 L 244.638 122.833 244.694 119.208 C 244.763 114.729,244.889 114.389,246.547 114.218 C 247.331 114.137,247.487 114.177,247.964 114.579 L 248.500 115.030 248.500 118.931 L 248.500 122.833 249.758 122.833 L 251.015 122.833 250.966 118.362 L 250.917 113.890 250.460 113.291 C 249.240 111.693,245.975 111.681,244.608 113.271 L 244.240 113.698 244.020 113.287 C 243.503 112.321,240.713 111.738,239.583 112.360 M255.435 112.632 C 251.689 114.641,251.904 121.380,255.760 122.823 C 258.726 123.932,262.667 122.223,262.667 119.828 C 262.667 119.145,260.447 119.361,259.998 120.087 C 258.763 122.085,255.870 121.292,255.270 118.792 L 255.160 118.333 258.977 118.333 L 262.794 118.333 262.882 117.876 C 263.617 114.028,258.954 110.744,255.435 112.632 M288.167 115.987 C 288.167 120.477,288.299 121.300,289.163 122.162 C 290.456 123.453,293.253 123.448,294.644 122.152 L 295.000 121.820 295.000 122.327 L 295.000 122.833 296.250 122.833 L 297.500 122.833 297.500 117.500 L 297.500 112.167 296.264 112.167 L 295.028 112.167 294.972 115.792 C 294.904 120.256,294.525 121.125,292.633 121.159 C 290.974 121.188,290.667 120.346,290.667 115.781 L 290.667 112.167 289.417 112.167 L 288.167 112.167 288.167 115.987 M258.521 114.235 C 259.501 114.645,259.992 115.213,260.230 116.208 L 260.340 116.667 257.753 116.667 C 256.331 116.667,255.167 116.627,255.167 116.578 C 255.167 115.845,256.250 114.550,257.123 114.238 C 257.913 113.956,257.855 113.956,258.521 114.235 M319.312 114.422 C 319.970 114.858,320.235 115.250,320.407 116.042 L 320.506 116.500 317.990 116.500 L 315.474 116.500 315.591 115.958 C 315.962 114.256,317.870 113.468,319.312 114.422 M347.719 114.193 C 348.381 114.543,348.739 115.054,349.072 116.125 L 349.189 116.500 346.599 116.500 L 344.008 116.500 344.116 115.963 C 344.175 115.667,344.287 115.348,344.365 115.254 C 344.859 114.656,345.127 114.393,345.419 114.218 C 345.848 113.961,347.252 113.945,347.719 114.193 M223.291 114.770 C 225.094 116.145,224.845 119.959,222.886 120.977 C 220.738 122.094,218.421 119.683,218.989 116.923 C 219.495 114.472,221.551 113.443,223.291 114.770 M199.794 114.772 C 200.110 115.013,200.473 115.461,200.601 115.767 C 201.055 116.853,201.096 116.833,198.333 116.833 C 195.580 116.833,195.631 116.857,196.079 115.786 C 196.679 114.350,198.566 113.835,199.794 114.772 M283.500 118.737 C 283.500 120.915,280.140 122.152,279.166 120.332 C 278.570 119.219,279.354 118.606,282.000 118.113 C 282.688 117.985,283.306 117.870,283.375 117.857 C 283.444 117.844,283.500 118.240,283.500 118.737 M48.667 143.904 C 45.091 144.892,43.239 148.909,44.825 152.233 C 47.480 157.796,55.832 156.162,56.143 150.019 C 56.351 145.910,52.577 142.823,48.667 143.904 M61.243 143.876 C 61.198 143.991,61.182 146.635,61.206 149.751 L 61.250 155.417 62.583 155.417 L 63.917 155.417 63.962 152.422 L 64.008 149.428 67.146 152.562 C 69.718 155.132,70.355 155.686,70.683 155.640 L 71.083 155.583 71.127 149.845 C 71.177 143.369,71.284 143.838,69.750 143.838 C 68.292 143.838,68.348 143.722,68.296 146.870 L 68.250 149.642 66.833 148.291 C 66.054 147.548,64.650 146.204,63.713 145.303 C 62.082 143.737,61.439 143.365,61.243 143.876 M80.584 143.877 C 78.568 144.409,77.020 145.910,76.350 147.983 C 76.111 148.721,76.114 150.854,76.354 151.450 C 76.988 153.024,77.694 153.948,78.917 154.804 C 80.318 155.786,83.129 155.893,84.769 155.027 C 86.901 153.903,87.871 152.347,87.970 149.891 C 88.031 148.376,87.996 148.213,87.303 146.737 C 86.279 144.555,83.116 143.209,80.584 143.877 M117.500 143.882 C 114.989 144.747,114.249 147.613,116.069 149.431 C 116.609 149.971,118.033 150.833,118.385 150.833 C 118.800 150.833,119.833 151.850,119.833 152.258 C 119.833 153.232,118.450 153.393,117.148 152.572 C 116.226 151.990,115.976 152.053,115.542 152.981 C 114.751 154.668,115.896 155.568,118.833 155.569 C 123.705 155.572,124.582 150.761,120.109 148.580 C 117.967 147.535,117.534 147.033,118.200 146.367 C 118.571 145.996,120.421 146.467,120.762 147.019 C 121.006 147.413,121.624 147.135,122.144 146.399 C 122.734 145.561,122.767 145.052,122.250 144.767 C 122.067 144.666,121.879 144.536,121.833 144.478 C 121.412 143.945,118.486 143.543,117.500 143.882 M29.444 143.944 C 29.383 144.006,29.333 146.634,29.333 149.785 L 29.333 155.513 30.708 155.465 L 32.083 155.417 32.130 153.125 L 32.176 150.833 34.333 150.833 L 36.491 150.833 36.537 153.125 L 36.583 155.417 37.917 155.417 L 39.250 155.417 39.294 149.761 C 39.343 143.399,39.442 143.840,37.972 143.836 C 36.441 143.832,36.500 143.737,36.500 146.184 L 36.500 148.333 34.333 148.333 L 32.167 148.333 32.167 146.184 C 32.167 144.379,32.125 144.020,31.903 143.934 C 31.546 143.798,29.583 143.806,29.444 143.944 M93.206 143.962 C 93.042 144.074,93.005 145.352,93.039 149.761 L 93.083 155.417 94.417 155.417 L 95.750 155.417 95.797 153.198 L 95.843 150.979 96.276 151.031 C 96.648 151.076,96.867 151.391,97.821 153.250 L 98.934 155.417 100.383 155.465 C 101.725 155.509,101.833 155.489,101.833 155.189 C 101.833 154.895,101.216 153.536,100.991 153.333 C 100.940 153.287,100.796 152.999,100.672 152.692 C 100.547 152.384,100.264 151.866,100.043 151.539 C 99.680 151.005,99.667 150.930,99.913 150.792 C 102.572 149.304,102.593 145.625,99.952 144.216 C 99.356 143.899,93.616 143.682,93.206 143.962 M107.242 144.043 C 107.198 144.158,107.182 146.764,107.206 149.835 L 107.250 155.417 108.583 155.417 L 109.917 155.417 109.961 149.761 C 109.995 145.348,109.958 144.076,109.794 143.972 C 109.440 143.747,107.333 143.806,107.242 144.043 M304.298 144.675 C 303.003 145.359,302.474 147.142,303.165 148.497 C 303.487 149.128,304.432 150.000,304.794 150.000 C 304.892 150.000,304.997 150.064,305.028 150.141 C 305.058 150.219,305.427 150.473,305.846 150.705 C 307.215 151.464,307.390 151.577,307.949 152.068 C 309.080 153.064,308.466 154.588,306.857 154.778 C 305.208 154.974,303.500 153.607,303.500 152.094 C 303.500 151.951,303.387 151.833,303.250 151.833 C 303.042 151.833,303.000 152.167,303.000 153.833 C 303.000 155.782,303.267 156.576,303.554 155.479 C 303.625 155.207,303.736 155.146,304.032 155.216 C 304.243 155.267,304.935 155.436,305.569 155.591 C 307.559 156.078,309.752 155.093,310.089 153.561 C 310.147 153.298,310.225 152.984,310.263 152.863 C 310.604 151.771,309.274 150.139,307.250 149.166 C 306.319 148.718,304.834 147.656,304.565 147.245 C 303.831 146.126,305.296 144.780,306.781 145.208 C 307.920 145.536,308.437 146.197,308.931 147.958 C 308.963 148.073,309.104 148.167,309.245 148.167 C 309.459 148.167,309.500 147.860,309.500 146.250 C 309.500 144.269,309.312 143.843,308.766 144.590 C 308.597 144.821,308.506 144.821,307.852 144.590 C 306.818 144.225,305.070 144.267,304.298 144.675 M360.419 144.536 C 357.681 146.122,358.375 148.877,362.000 150.820 C 364.452 152.135,365.013 153.031,364.079 154.142 C 362.859 155.591,359.928 154.535,359.608 152.531 C 359.519 151.979,359.426 151.833,359.159 151.833 C 358.838 151.833,358.825 151.923,358.870 153.778 C 358.918 155.792,359.122 156.312,359.521 155.437 C 359.705 155.034,359.738 155.025,360.258 155.242 C 363.630 156.651,366.544 155.005,366.058 151.965 C 365.938 151.214,364.614 149.667,364.091 149.667 C 363.949 149.667,363.833 149.609,363.833 149.539 C 363.833 149.469,363.552 149.283,363.208 149.125 C 360.716 147.979,359.865 146.909,360.605 145.853 C 361.628 144.393,363.944 145.149,364.687 147.185 C 365.265 148.770,365.500 148.499,365.500 146.250 C 365.500 144.251,365.312 143.843,364.748 144.614 C 364.556 144.877,364.497 144.877,363.807 144.614 C 362.959 144.290,360.923 144.243,360.419 144.536 M133.667 144.750 C 133.667 144.923,133.840 145.000,134.230 145.000 C 135.201 145.000,135.240 145.151,135.349 149.400 C 135.451 153.416,135.554 153.941,136.384 154.731 C 138.296 156.550,143.080 155.817,143.578 153.629 C 143.625 153.421,143.738 152.912,143.828 152.500 C 143.918 152.087,143.994 150.355,143.996 148.651 C 144.000 145.242,144.071 145.000,145.055 145.000 C 145.339 145.000,145.500 144.910,145.500 144.750 C 145.500 144.542,145.167 144.500,143.500 144.500 C 141.833 144.500,141.500 144.542,141.500 144.750 C 141.500 144.914,141.664 145.000,141.974 145.000 C 142.965 145.000,143.024 145.250,142.968 149.190 C 142.924 152.217,142.872 152.840,142.616 153.353 C 141.929 154.733,139.228 155.240,138.052 154.209 C 137.308 153.557,137.253 153.247,137.194 149.451 C 137.131 145.364,137.211 145.000,138.171 145.000 C 138.500 145.000,138.667 144.916,138.667 144.750 C 138.667 144.539,138.278 144.500,136.167 144.500 C 134.056 144.500,133.667 144.539,133.667 144.750 M148.500 144.750 C 148.500 144.887,148.641 145.000,148.814 145.000 C 149.194 145.000,149.850 145.326,150.225 145.701 C 150.466 145.943,150.500 146.504,150.500 150.295 L 150.500 154.613 150.075 154.807 C 149.842 154.913,149.505 155.000,149.325 155.000 C 149.146 155.000,149.000 155.112,149.000 155.250 C 149.000 155.458,149.333 155.500,151.000 155.500 C 153.047 155.500,153.824 155.192,152.433 154.931 C 151.502 154.756,151.489 154.698,151.538 150.826 L 151.583 147.277 152.332 148.264 C 152.744 148.806,153.194 149.362,153.334 149.500 C 153.473 149.637,153.785 150.012,154.027 150.333 C 154.268 150.654,154.606 151.067,154.776 151.250 C 154.947 151.433,155.344 151.921,155.660 152.333 C 155.975 152.746,156.462 153.349,156.742 153.673 C 157.021 153.997,157.504 154.578,157.813 154.964 C 158.812 156.209,158.810 156.217,158.866 150.570 C 158.922 144.926,158.907 145.000,160.032 145.000 C 160.337 145.000,160.500 144.913,160.500 144.750 C 160.500 144.542,160.167 144.500,158.500 144.500 C 156.833 144.500,156.500 144.542,156.500 144.750 C 156.500 144.916,156.666 145.000,156.991 145.000 C 157.911 145.000,158.001 145.357,157.993 148.995 L 157.986 152.250 157.477 151.667 C 157.197 151.346,156.548 150.558,156.035 149.917 C 155.521 149.275,155.060 148.712,155.009 148.667 C 154.958 148.621,154.617 148.208,154.250 147.750 C 153.884 147.292,153.459 146.767,153.306 146.583 C 153.153 146.400,152.720 145.856,152.343 145.375 L 151.659 144.500 150.079 144.500 C 148.787 144.500,148.500 144.545,148.500 144.750 M164.000 144.750 C 164.000 144.910,164.164 145.002,164.458 145.005 C 165.505 145.017,165.500 144.992,165.500 150.033 L 165.500 154.613 165.075 154.807 C 164.842 154.913,164.505 155.000,164.325 155.000 C 164.146 155.000,164.000 155.112,164.000 155.250 C 164.000 155.461,164.380 155.500,166.417 155.500 C 168.356 155.500,168.833 155.455,168.833 155.271 C 168.833 155.145,168.617 154.998,168.353 154.946 C 167.336 154.742,167.333 154.731,167.333 149.988 C 167.333 145.231,167.383 145.000,168.417 145.000 C 168.676 145.000,168.833 144.906,168.833 144.750 C 168.833 144.539,168.454 144.500,166.417 144.500 C 164.380 144.500,164.000 144.539,164.000 144.750 M172.939 145.273 C 172.761 146.576,172.806 147.167,173.083 147.167 C 173.221 147.167,173.333 147.022,173.333 146.845 C 173.333 146.039,174.373 145.333,175.561 145.333 L 176.667 145.333 176.666 149.375 C 176.665 154.374,176.517 155.000,175.344 155.000 C 175.149 155.000,175.000 155.108,175.000 155.250 C 175.000 155.461,175.380 155.500,177.417 155.500 C 179.454 155.500,179.833 155.461,179.833 155.250 C 179.833 155.112,179.687 155.000,179.508 155.000 C 179.329 155.000,178.991 154.913,178.758 154.807 L 178.333 154.613 178.333 149.973 L 178.333 145.333 179.175 145.333 C 180.427 145.333,181.500 146.061,181.500 146.911 C 181.500 147.052,181.612 147.167,181.750 147.167 C 181.951 147.167,182.000 146.907,182.000 145.833 L 182.000 144.500 177.523 144.500 L 173.045 144.500 172.939 145.273 M185.833 144.750 C 185.833 144.918,186.001 145.000,186.345 145.000 C 187.326 145.000,187.333 145.038,187.333 149.979 C 187.333 154.941,187.320 155.000,186.213 155.000 C 185.985 155.000,185.833 155.101,185.833 155.253 C 185.833 155.473,186.378 155.500,190.098 155.461 L 194.363 155.417 194.761 154.250 C 195.403 152.364,195.159 151.837,194.300 153.253 C 193.593 154.417,193.042 154.665,191.158 154.666 C 189.112 154.667,189.167 154.734,189.167 152.217 L 189.167 150.167 190.625 150.172 C 192.286 150.178,192.600 150.328,192.850 151.233 C 193.161 152.360,193.333 151.862,193.333 149.833 C 193.333 147.825,193.189 147.384,192.850 148.356 C 192.562 149.183,192.243 149.322,190.625 149.328 L 189.167 149.333 189.167 147.333 L 189.167 145.333 191.051 145.333 C 193.180 145.333,193.379 145.414,193.722 146.417 C 194.236 147.921,194.759 146.838,194.396 145.021 L 194.292 144.500 190.063 144.500 C 186.414 144.500,185.833 144.534,185.833 144.750 M199.000 144.730 C 199.000 144.918,199.149 145.000,199.491 145.000 C 200.446 145.000,200.500 145.267,200.500 150.008 C 200.500 154.689,200.429 155.000,199.364 155.000 C 199.146 155.000,199.000 155.104,199.000 155.260 C 199.000 155.736,205.453 155.532,206.745 155.014 C 210.881 153.356,211.160 146.961,207.181 145.051 C 205.988 144.479,199.000 144.205,199.000 144.730 M221.000 144.750 C 221.000 144.911,221.163 145.001,221.458 145.003 C 222.547 145.009,222.667 145.463,222.667 149.600 C 222.667 152.278,222.721 153.144,222.921 153.630 C 224.054 156.385,229.037 156.552,230.683 153.891 C 231.062 153.278,231.083 153.084,231.171 149.378 C 231.270 145.162,231.307 145.019,232.292 145.005 C 232.512 145.002,232.667 144.897,232.667 144.750 C 232.667 144.542,232.343 144.500,230.750 144.500 C 229.157 144.500,228.833 144.542,228.833 144.750 C 228.833 144.897,228.988 145.002,229.208 145.005 C 230.136 145.018,230.167 145.146,230.167 149.052 C 230.167 153.296,230.135 153.422,228.857 154.321 C 228.083 154.866,226.233 154.905,225.545 154.392 C 224.486 153.603,224.417 153.286,224.417 149.239 C 224.417 145.216,224.467 145.000,225.405 145.000 C 225.675 145.000,225.833 144.907,225.833 144.750 C 225.833 144.539,225.454 144.500,223.417 144.500 C 221.380 144.500,221.000 144.539,221.000 144.750 M235.667 144.750 C 235.667 144.915,235.832 145.000,236.155 145.000 C 236.481 145.000,236.843 145.188,237.246 145.569 L 237.850 146.138 237.800 150.312 C 237.745 154.874,237.721 154.980,236.708 154.995 C 236.488 154.998,236.333 155.103,236.333 155.250 C 236.333 155.458,236.657 155.500,238.250 155.500 C 239.843 155.500,240.167 155.458,240.167 155.250 C 240.167 155.112,240.033 155.000,239.870 155.000 C 238.893 155.000,238.833 154.770,238.833 150.991 C 238.833 148.775,238.894 147.500,239.000 147.500 C 239.092 147.500,239.167 147.560,239.167 147.634 C 239.167 147.708,239.598 148.284,240.125 148.914 C 240.652 149.544,241.371 150.431,241.723 150.885 C 242.075 151.340,242.513 151.870,242.698 152.064 C 242.883 152.258,243.233 152.679,243.475 153.000 C 243.718 153.321,244.053 153.733,244.219 153.917 C 244.386 154.100,244.761 154.566,245.053 154.953 C 246.137 156.391,246.167 156.279,246.167 150.704 C 246.167 145.202,246.202 145.000,247.176 145.000 C 247.501 145.000,247.667 144.916,247.667 144.750 C 247.667 144.542,247.333 144.500,245.667 144.500 C 244.000 144.500,243.667 144.542,243.667 144.750 C 243.667 144.910,243.831 145.002,244.125 145.005 C 245.141 145.017,245.168 145.115,245.158 148.852 C 245.150 152.099,245.137 152.232,244.866 151.842 C 244.711 151.617,244.433 151.279,244.250 151.091 C 244.067 150.902,243.695 150.451,243.423 150.089 C 243.152 149.727,242.762 149.240,242.556 149.007 C 242.245 148.655,241.388 147.608,239.501 145.273 C 238.889 144.516,238.842 144.500,237.238 144.500 C 235.952 144.500,235.667 144.545,235.667 144.750 M251.333 144.750 C 251.333 144.916,251.499 145.000,251.824 145.000 C 252.780 145.000,252.833 145.265,252.833 150.037 C 252.833 154.766,252.782 155.000,251.750 155.000 C 251.491 155.000,251.333 155.094,251.333 155.250 C 251.333 155.461,251.713 155.500,253.750 155.500 C 255.787 155.500,256.167 155.461,256.167 155.250 C 256.167 155.103,256.012 154.998,255.792 154.996 C 255.585 154.994,255.229 154.849,255.000 154.672 L 254.583 154.352 254.583 150.027 C 254.583 145.227,254.633 145.000,255.692 145.000 C 256.003 145.000,256.167 144.914,256.167 144.750 C 256.167 144.539,255.787 144.500,253.750 144.500 C 251.713 144.500,251.333 144.539,251.333 144.750 M259.667 144.750 C 259.667 144.887,259.776 145.000,259.909 145.000 C 260.410 145.000,260.936 145.372,261.161 145.885 C 261.642 146.978,262.366 148.608,262.694 149.333 C 262.880 149.746,263.129 150.308,263.247 150.583 C 263.365 150.858,263.620 151.439,263.814 151.873 C 264.008 152.308,264.167 152.702,264.167 152.750 C 264.167 152.798,264.325 153.192,264.520 153.627 C 264.714 154.061,265.014 154.735,265.187 155.125 C 265.610 156.078,265.890 156.017,266.333 154.875 C 266.537 154.348,266.803 153.692,266.922 153.417 C 267.042 153.142,267.717 151.492,268.423 149.750 C 270.067 145.693,270.207 145.426,270.825 145.170 C 271.900 144.725,271.455 144.500,269.500 144.500 C 267.981 144.500,267.667 144.543,267.667 144.750 C 267.667 144.887,267.798 145.002,267.958 145.005 C 268.847 145.021,269.051 145.847,268.482 147.127 C 267.422 149.514,267.167 150.119,267.167 150.250 C 267.167 150.314,267.054 150.621,266.917 150.933 C 266.779 151.245,266.546 151.772,266.399 152.104 L 266.131 152.709 265.475 151.229 C 265.114 150.416,264.755 149.600,264.676 149.417 C 264.598 149.233,264.420 148.821,264.281 148.500 C 264.141 148.179,263.897 147.579,263.739 147.167 C 263.580 146.754,263.386 146.345,263.308 146.258 C 262.911 145.814,263.378 145.017,264.042 145.005 C 264.202 145.002,264.333 144.887,264.333 144.750 C 264.333 144.540,263.963 144.500,262.000 144.500 C 260.037 144.500,259.667 144.540,259.667 144.750 M274.833 144.750 C 274.833 144.922,275.006 145.000,275.383 145.000 C 276.335 145.000,276.333 144.989,276.333 150.007 L 276.333 154.613 275.909 154.807 C 275.675 154.913,275.338 155.000,275.159 155.000 C 274.980 155.000,274.833 155.112,274.833 155.250 C 274.833 155.466,275.423 155.500,279.140 155.500 L 283.447 155.500 283.890 154.155 C 284.529 152.217,284.310 151.820,283.399 153.267 C 282.697 154.382,282.031 154.667,280.123 154.667 C 278.117 154.667,278.167 154.729,278.167 152.217 L 278.167 150.167 279.630 150.167 C 281.328 150.167,281.763 150.373,281.929 151.255 C 282.191 152.656,282.500 151.889,282.500 149.833 C 282.500 148.167,282.458 147.833,282.250 147.833 C 282.112 147.833,282.000 147.953,282.000 148.099 C 282.000 149.001,281.391 149.333,279.739 149.333 L 278.167 149.333 278.167 147.333 L 278.167 145.333 280.061 145.333 C 282.091 145.333,282.833 145.601,282.833 146.332 C 282.833 146.817,283.015 147.167,283.268 147.167 C 283.447 147.167,283.500 146.862,283.500 145.833 L 283.500 144.500 279.167 144.500 C 275.426 144.500,274.833 144.534,274.833 144.750 M288.000 144.731 C 288.000 144.912,288.150 145.002,288.458 145.005 C 289.504 145.017,289.500 144.999,289.500 149.967 C 289.500 154.943,289.487 155.000,288.380 155.000 C 288.153 155.000,288.000 155.101,288.000 155.250 C 288.000 155.461,288.380 155.500,290.417 155.500 C 292.454 155.500,292.833 155.461,292.833 155.250 C 292.833 155.101,292.680 155.000,292.454 155.000 C 291.487 155.000,291.333 154.656,291.333 152.491 L 291.333 150.500 291.833 150.500 C 292.108 150.500,292.333 150.557,292.333 150.627 C 292.333 150.696,292.502 150.942,292.708 151.172 C 292.915 151.402,293.340 151.964,293.653 152.420 C 293.966 152.877,294.603 153.756,295.068 154.375 L 295.913 155.500 297.373 155.500 C 299.053 155.500,299.324 155.231,298.125 154.755 C 297.243 154.404,296.803 154.004,295.987 152.809 C 295.634 152.292,295.249 151.765,295.131 151.638 C 294.846 151.332,294.167 150.367,294.167 150.270 C 294.167 150.227,294.427 150.107,294.744 150.002 C 297.101 149.224,297.310 146.056,295.083 144.868 C 294.320 144.461,288.000 144.338,288.000 144.731 M314.500 144.750 C 314.500 144.910,314.664 145.002,314.958 145.005 C 316.004 145.017,316.000 144.999,316.000 149.967 C 316.000 154.943,315.987 155.000,314.880 155.000 C 314.653 155.000,314.500 155.101,314.500 155.250 C 314.500 155.461,314.880 155.500,316.917 155.500 C 318.954 155.500,319.333 155.461,319.333 155.250 C 319.333 155.110,319.185 155.000,318.994 155.000 C 318.808 155.000,318.470 154.879,318.244 154.731 L 317.833 154.462 317.833 150.007 C 317.833 145.099,317.854 145.000,318.888 145.000 C 319.173 145.000,319.333 144.910,319.333 144.750 C 319.333 144.539,318.954 144.500,316.917 144.500 C 314.880 144.500,314.500 144.539,314.500 144.750 M323.331 145.458 C 323.330 145.985,323.284 146.585,323.228 146.792 C 323.147 147.094,323.196 147.167,323.481 147.167 C 323.678 147.167,323.833 147.060,323.833 146.925 C 323.833 145.973,324.732 145.333,326.067 145.333 L 327.000 145.333 327.000 149.804 C 327.000 154.712,326.937 155.000,325.864 155.000 C 325.652 155.000,325.500 155.104,325.500 155.250 C 325.500 155.461,325.880 155.500,327.917 155.500 C 329.954 155.500,330.333 155.461,330.333 155.250 C 330.333 155.112,330.187 155.000,330.008 155.000 C 328.740 155.000,328.667 154.684,328.667 149.227 L 328.667 145.333 329.625 145.334 C 330.832 145.335,331.555 145.741,331.829 146.570 C 332.190 147.665,332.500 147.324,332.500 145.833 L 332.500 144.500 327.917 144.500 L 323.333 144.500 323.331 145.458 M336.333 144.750 C 336.333 144.910,336.498 145.002,336.792 145.005 C 337.837 145.017,337.833 144.999,337.833 149.967 C 337.833 154.943,337.821 155.000,336.713 155.000 C 336.487 155.000,336.333 155.101,336.333 155.250 C 336.333 155.461,336.713 155.500,338.750 155.500 C 340.787 155.500,341.167 155.461,341.167 155.250 C 341.167 155.110,341.018 155.000,340.827 155.000 C 340.641 155.000,340.303 154.879,340.077 154.731 L 339.667 154.462 339.667 150.007 C 339.667 145.099,339.688 145.000,340.721 145.000 C 341.006 145.000,341.167 144.910,341.167 144.750 C 341.167 144.539,340.787 144.500,338.750 144.500 C 336.713 144.500,336.333 144.539,336.333 144.750 M345.000 144.750 C 345.000 144.914,345.164 145.000,345.480 145.000 C 346.390 145.000,346.417 145.142,346.417 150.032 C 346.417 154.903,346.451 154.726,345.458 154.942 C 345.206 154.997,345.000 155.145,345.000 155.271 C 345.000 155.459,345.751 155.500,349.224 155.500 L 353.447 155.500 353.890 154.155 C 354.536 152.196,354.307 151.818,353.379 153.311 C 352.681 154.434,352.137 154.667,350.212 154.667 C 348.134 154.667,348.167 154.706,348.167 152.179 L 348.167 150.167 349.630 150.167 C 351.293 150.167,351.746 150.368,351.963 151.204 C 352.283 152.440,352.500 151.892,352.500 149.847 C 352.500 147.821,352.343 147.348,351.984 148.291 C 351.625 149.235,351.412 149.333,349.724 149.333 L 348.167 149.333 348.167 147.333 L 348.167 145.333 350.138 145.333 C 352.343 145.333,352.671 145.486,352.912 146.625 C 353.148 147.739,353.500 147.264,353.500 145.833 L 353.500 144.500 349.250 144.500 C 345.583 144.500,345.000 144.534,345.000 144.750 M205.474 145.737 C 210.135 148.099,207.423 156.418,202.597 154.566 C 202.245 154.431,202.192 145.585,202.542 145.444 C 203.156 145.196,204.714 145.352,205.474 145.737 M293.544 145.639 C 295.513 146.937,294.452 149.667,291.980 149.667 L 291.333 149.667 291.333 147.500 L 291.333 145.333 292.208 145.334 C 292.774 145.335,293.246 145.443,293.544 145.639 M51.202 146.741 C 54.122 147.961,53.971 151.618,50.957 152.681 C 49.200 153.300,47.167 151.683,47.167 149.667 C 47.167 148.864,47.691 147.500,47.999 147.500 C 48.057 147.500,48.249 147.369,48.427 147.208 C 49.161 146.544,50.281 146.356,51.202 146.741 M83.253 146.852 C 86.855 148.545,84.616 154.108,80.972 152.518 C 78.834 151.586,78.273 148.465,80.041 147.343 C 81.492 146.421,82.129 146.324,83.253 146.852 M98.907 146.870 C 99.670 147.959,98.993 148.667,97.189 148.667 L 95.833 148.667 95.833 147.583 L 95.833 146.500 97.241 146.500 C 98.506 146.500,98.674 146.537,98.907 146.870 " stroke="none" fill="#040404" fill-rule="evenodd"></path><path id="path3" d="" stroke="none" fill="#34605c" fill-rule="evenodd"></path><path id="path4" d="" stroke="none" fill="#340460" fill-rule="evenodd"></path></g></svg>